<svg width="32" height="40" viewBox="0 0 32 40" fill="none" xmlns="http://www.w3.org/2000/svg">
<path d="M27.2 20.8C29.851 20.8 32 22.949 32 25.6V27.2C32 33.5086 26.0496 40 16 40C5.95043 40 0 33.5086 0 27.2V25.6C0 22.949 2.14903 20.8 4.8 20.8H27.2ZM27.2 24H4.8C3.91634 24 3.2 24.7163 3.2 25.6V27.2C3.2 31.8005 7.7829 36.8 16 36.8C24.2171 36.8 28.8 31.8005 28.8 27.2V25.6C28.8 24.7163 28.0837 24 27.2 24ZM16 0C20.8601 0 24.8 3.93989 24.8 8.8C24.8 13.6601 20.8601 17.6 16 17.6C11.1399 17.6 7.2 13.6601 7.2 8.8C7.2 3.93989 11.1399 0 16 0ZM16 3.2C12.9072 3.2 10.4 5.70721 10.4 8.8C10.4 11.8928 12.9072 14.4 16 14.4C19.0928 14.4 21.6 11.8928 21.6 8.8C21.6 5.70721 19.0928 3.2 16 3.2Z" fill="#191717"/>
</svg>
