<svg width="49" height="49" viewBox="0 0 49 49" fill="none" xmlns="http://www.w3.org/2000/svg">
<rect x="1" y="1.09375" width="46.5625" height="46.5625" rx="23.28" fill="#5CB1A5"/>
<path d="M19 19L19.4968 18.4467C19.4972 18.4467 19.4972 18.4467 19.4972 18.4467L19.4971 18.4464L19.497 18.4448L19.4959 18.4341C19.495 18.424 19.4935 18.408 19.4918 18.3866C19.4883 18.3436 19.4836 18.2789 19.4794 18.1954C19.471 18.0283 19.4642 17.7873 19.4716 17.4972C19.4866 16.9138 19.5584 16.1475 19.7797 15.3903C20.0015 14.6315 20.3644 13.9119 20.9405 13.3844C21.5062 12.8666 22.3139 12.5 23.5 12.5C24.6862 12.5 25.5322 12.867 26.1502 13.3956C26.7776 13.9322 27.1999 14.6614 27.4811 15.4232C27.762 16.1838 27.8929 16.952 27.9527 17.5354C27.9824 17.8257 27.9942 18.0668 27.9986 18.2338C28.0008 18.3173 28.0012 18.382 28.001 18.4249C28.0009 18.4463 28.0007 18.4623 28.0005 18.4724L28.0003 18.483L28.0002 18.4846L28.0002 18.4849C28.0002 18.4849 28.0002 18.4849 28.0005 18.4849L28.5 19L29.5 19C30.8807 19 32 20.1193 32 21.5V32C32 33.3807 30.8807 34.5 29.5 34.5L18 34.5C16.6193 34.5 15.5 33.3807 15.5 32V21.5C15.5 20.1193 16.6193 19 18 19H19Z" stroke="#343332" stroke-miterlimit="1.30541"/>
<line x1="19" y1="19" x2="29" y2="19" stroke="#343332"/>
<path d="M23.6763 26.4869V25.3948C23.8429 25.4569 23.9551 25.5665 24.0224 25.7199C24.0545 25.8002 24.109 25.8587 24.2051 25.8587C24.2468 25.8623 24.2885 25.8587 24.3301 25.8514C24.6378 25.8112 24.7372 25.2925 24.4872 25.0807C24.2853 24.9127 24.016 24.8141 23.6795 24.7776V24.5H23.2115V24.7776C22.8462 24.8104 22.5513 24.9273 22.3301 25.1355C22.109 25.3437 22 25.5993 22 25.9061C22 26.2093 22.0962 26.4649 22.2917 26.6768C22.4872 26.8886 22.7917 27.0457 23.2115 27.1479V28.3167C23.0962 28.2692 22.9904 28.1888 22.8974 28.0829C22.8608 28.0423 22.8286 27.997 22.8013 27.9478C22.7179 27.8017 22.5897 27.7104 22.4487 27.725C22.0929 27.7579 21.9647 28.324 22.2564 28.5796L22.3141 28.6308C22.5449 28.8316 22.8429 28.9522 23.2115 28.9923V29.5H23.6763V28.9741C24.0929 28.9229 24.4167 28.7805 24.6506 28.5504C24.8846 28.3203 25 28.0354 25 27.6994C25 27.3963 24.9071 27.1516 24.7212 26.958C24.5353 26.7644 24.1891 26.611 23.6763 26.4869ZM23.2115 26.3554C23.0737 26.3042 22.9679 26.2348 22.9006 26.1508C22.8333 26.0668 22.7981 25.9755 22.7981 25.8769C22.7981 25.7673 22.8365 25.6687 22.9103 25.5811C22.984 25.4934 23.0833 25.4277 23.2115 25.3912V26.3554ZM24.0673 28.1633C23.9679 28.2655 23.8365 28.3313 23.6763 28.3568V27.2684C23.8686 27.3159 24.0064 27.3853 24.0897 27.4766C24.1731 27.5679 24.2147 27.6738 24.2147 27.798C24.2147 27.9405 24.1667 28.061 24.0673 28.1633Z" fill="#343332"/>
<circle cx="23.5" cy="27" r="5" stroke="#343332"/>
<rect x="1" y="1.09375" width="46.5625" height="46.5625" rx="23.28" stroke="#5CB1A5" stroke-width="2"/>
</svg>
