<svg width="276" height="84" viewBox="0 0 276 84" fill="none" xmlns="http://www.w3.org/2000/svg">
<path d="M66.2 38.5C63.5333 38.5 61.5167 37.75 60.15 36.25C58.7833 34.7167 58.1 32.5333 58.1 29.7V27.7H63.3V30.1C63.3 32.3667 64.25 33.5 66.15 33.5C67.0833 33.5 67.7833 33.2333 68.25 32.7C68.75 32.1333 69 31.2333 69 30C69 28.5333 68.6667 27.25 68 26.15C67.3333 25.0167 66.1 23.6667 64.3 22.1C62.0333 20.1 60.45 18.3 59.55 16.7C58.65 15.0667 58.2 13.2333 58.2 11.2C58.2 8.43333 58.9 6.3 60.3 4.8C61.7 3.26666 63.7333 2.5 66.4 2.5C69.0333 2.5 71.0167 3.26666 72.35 4.8C73.7167 6.3 74.4 8.46667 74.4 11.3V12.75H69.2V10.95C69.2 9.75 68.9667 8.88333 68.5 8.35C68.0333 7.78333 67.35 7.5 66.45 7.5C64.6167 7.5 63.7 8.61667 63.7 10.85C63.7 12.1167 64.0333 13.3 64.7 14.4C65.4 15.5 66.65 16.8333 68.45 18.4C70.75 20.4 72.3333 22.2167 73.2 23.85C74.0667 25.4833 74.5 27.4 74.5 29.6C74.5 32.4667 73.7833 34.6667 72.35 36.2C70.95 37.7333 68.9 38.5 66.2 38.5ZM82.7535 8H77.0035V3H94.0035V8H88.2535V38H82.7535V8ZM97.4664 3H105.616C108.45 3 110.516 3.66666 111.816 5C113.116 6.3 113.766 8.31666 113.766 11.05V13.2C113.766 16.8333 112.566 19.1333 110.166 20.1V20.2C111.5 20.6 112.433 21.4167 112.966 22.65C113.533 23.8833 113.816 25.5333 113.816 27.6V33.75C113.816 34.75 113.85 35.5667 113.916 36.2C113.983 36.8 114.15 37.4 114.416 38H108.816C108.616 37.4333 108.483 36.9 108.416 36.4C108.35 35.9 108.316 35 108.316 33.7V27.3C108.316 25.7 108.05 24.5833 107.516 23.95C107.016 23.3167 106.133 23 104.866 23H102.966V38H97.4664V3ZM104.966 18C106.066 18 106.883 17.7167 107.416 17.15C107.983 16.5833 108.266 15.6333 108.266 14.3V11.6C108.266 10.3333 108.033 9.41667 107.566 8.85C107.133 8.28333 106.433 8 105.466 8H102.966V18H104.966ZM118.432 3H133.432V8H123.932V17.25H131.482V22.25H123.932V33H133.432V38H118.432V3ZM137.396 3H152.396V8H142.896V17.25H150.446V22.25H142.896V33H152.396V38H137.396V3ZM160.661 8H154.911V3H171.911V8H166.161V38H160.661V8ZM188.481 8H182.731V3H199.731V8H193.981V38H188.481V8ZM205.149 3H212.599L218.299 38H212.799L211.799 31.05V31.15H205.549L204.549 38H199.449L205.149 3ZM211.149 26.4L208.699 9.1H208.599L206.199 26.4H211.149ZM226.715 20.1L220.665 3H226.465L230.165 14.3H230.265L234.065 3H239.265L233.215 20.1L239.565 38H233.765L229.765 25.8H229.665L225.565 38H220.365L226.715 20.1ZM242.978 3H248.478V38H242.978V3ZM59.05 43H64.55V57.75L71.55 43H77.05L70.5 55.85L77.15 78H71.4L66.75 62.4L64.55 66.85V78H59.05V43ZM80.5531 43H87.4531L92.8031 63.95H92.9031V43H97.8031V78H92.1531L85.5531 52.45H85.4531V78H80.5531V43ZM110.641 78.5C107.941 78.5 105.874 77.7333 104.441 76.2C103.008 74.6667 102.291 72.5 102.291 69.7V51.3C102.291 48.5 103.008 46.3333 104.441 44.8C105.874 43.2667 107.941 42.5 110.641 42.5C113.341 42.5 115.408 43.2667 116.841 44.8C118.274 46.3333 118.991 48.5 118.991 51.3V69.7C118.991 72.5 118.274 74.6667 116.841 76.2C115.408 77.7333 113.341 78.5 110.641 78.5ZM110.641 73.5C112.541 73.5 113.491 72.35 113.491 70.05V50.95C113.491 48.65 112.541 47.5 110.641 47.5C108.741 47.5 107.791 48.65 107.791 50.95V70.05C107.791 72.35 108.741 73.5 110.641 73.5ZM123.511 43H129.011V57.75L136.011 43H141.511L134.961 55.85L141.611 78H135.861L131.211 62.4L129.011 66.85V78H123.511V43ZM145.014 43H150.514V57.75L157.514 43H163.014L156.464 55.85L163.114 78H157.364L152.714 62.4L150.514 66.85V78H145.014V43ZM166.517 43H181.517V48H172.017V57.25H179.567V62.25H172.017V73H181.517V78H166.517V43Z" fill="white"/>
<path d="M53.9997 78.4671H54.0997V78.3671C54.0997 63.6999 42.1673 51.7672 27.4999 51.7672C12.8325 51.7672 0.9 63.6999 0.9 78.3671V78.4671H1H1.81538H1.91538V78.3671C1.91538 64.2598 13.3926 52.7826 27.4999 52.7826C41.6071 52.7826 53.0844 64.2598 53.0844 78.3671V78.4671H53.1844H53.9997Z" fill="#F3F3F3" stroke="#F3F3F3" stroke-width="0.2"/>
<path d="M23.4944 74.0639L8.16985 68.2375L23.4944 74.0639ZM23.4944 74.0639C22.5805 75.0544 22.0191 76.3756 22.0191 77.8271C22.0191 78.0454 22.0358 78.2588 22.0619 78.4683M23.4944 74.0639L22.0619 78.4683M8.09612 68.202C8.11905 68.2156 8.14358 68.2275 8.16979 68.2375L8.09612 68.202ZM8.09612 68.202C7.53713 69.2647 7.06348 70.3785 6.683 71.5345C6.71194 71.5411 6.74113 71.5505 6.77019 71.5636L22.0619 78.4683M8.09612 68.202L22.0619 78.4683M50.3332 78.4697H50.4332V78.3697C50.4332 65.7255 40.1466 55.4391 27.5025 55.4391C14.8585 55.4391 4.57187 65.7255 4.57187 78.3697V78.4697H4.67188H5.48726H5.58726V78.3697C5.58726 76.3388 5.87094 74.3739 6.3907 72.5062L22.3558 79.7149C22.7163 80.7089 23.3503 81.5703 24.1695 82.2089L24.1693 82.2092L24.177 82.2142L25.0316 82.7619L25.0314 82.7623L25.0397 82.7666C25.8012 83.1595 26.6625 83.3855 27.5772 83.3855C28.498 83.3855 29.3652 83.1568 30.1304 82.7591L30.1306 82.7595L30.1385 82.7544L30.994 82.2019L30.9942 82.2022L31.0015 82.1965C31.8169 81.5561 32.447 80.694 32.8042 79.7004L48.593 72.4293C49.1266 74.3199 49.4178 76.3109 49.4178 78.3697V78.4697H49.5178H50.3332ZM46.9923 68.3668C47.5017 69.3551 47.938 70.3862 48.2942 71.4542C48.2732 71.4606 48.2523 71.4684 48.2316 71.4779L48.2314 71.4779L33.095 78.4485C33.1196 78.2454 33.1354 78.0385 33.1354 77.8271C33.1354 76.3965 32.5889 75.0936 31.6982 74.1081L46.9368 68.3921L46.9369 68.3921C46.9564 68.3847 46.9749 68.3762 46.9923 68.3668ZM46.5032 67.4702L30.847 73.3427C29.9286 72.671 28.8004 72.269 27.5772 72.269C26.3764 72.269 25.267 72.6563 24.3577 73.3059L8.59384 67.3125C12.4032 60.8232 19.4502 56.4544 27.5025 56.4544C35.6199 56.4544 42.716 60.894 46.5032 67.4702ZM23.0345 77.8271C23.0345 75.3223 25.0724 73.2844 27.5772 73.2844C30.082 73.2844 32.12 75.3223 32.12 77.8271C32.12 80.3318 30.082 82.3701 27.5772 82.3701C25.0724 82.3701 23.0345 80.3319 23.0345 77.8271Z" fill="#F3F3F3" stroke="#F3F3F3" stroke-width="0.2"/>
<path fill-rule="evenodd" clip-rule="evenodd" d="M11.0465 0.000741338V0.00430863C10.8346 0.0135855 10.6332 0.098957 10.4793 0.244755C10.3253 0.390553 10.229 0.586996 10.2082 0.798031C10.2064 0.819434 10.1761 0.944289 10.1761 1.15833V6.24885C10.1761 8.33571 11.603 10.4672 13.5311 11.5106L13.9842 11.7532C13.053 13.6268 12.5653 15.6896 12.559 17.7819C12.559 19.405 12.8569 20.9514 13.367 22.3891C12.4823 23.4896 8.22656 29.1116 8.22656 36.3657C8.22656 44.4224 13.7095 50.7918 13.7095 50.7918C13.7932 50.8903 13.8973 50.9695 14.0147 51.0237C14.132 51.078 14.2598 51.1061 14.3891 51.1061C14.5183 51.1061 14.6461 51.078 14.7634 51.0237C14.8808 50.9695 14.9849 50.8903 15.0686 50.7918C15.0686 50.7918 15.4093 50.3744 15.8481 49.7698C16.244 50.1907 16.6489 50.5974 17.0681 50.9827C17.0271 51.1592 17.0021 51.3394 17.0021 51.5267C17.0021 51.648 17.0217 51.7657 17.0378 51.8834L17.4551 53.6367C17.5354 53.9132 17.6014 54.1807 17.6906 54.4572C17.8689 55.003 18.0527 55.5185 18.2275 55.9287C18.3149 56.1356 18.3933 56.3122 18.4932 56.4816C18.5479 56.5778 18.6131 56.6675 18.6876 56.7492C18.784 56.8526 18.9284 57.0827 19.4118 57.0827C19.8952 57.0827 20.045 56.8526 20.1395 56.7474C20.2149 56.666 20.2807 56.5762 20.3357 56.4799C20.4338 56.3122 20.5141 56.1356 20.5997 55.9287C20.7745 55.5185 20.96 55.0012 21.1366 54.4554C21.1669 54.3644 21.1883 54.2771 21.2168 54.1843C21.4041 54.302 21.595 54.434 21.7769 54.5428C21.9446 55.0547 22.1194 55.5434 22.2835 55.9287C22.3691 56.1356 22.4511 56.3122 22.551 56.4816C22.6062 56.5779 22.672 56.6676 22.7472 56.7492C22.8417 56.8526 22.988 57.0827 23.4714 57.0827C23.953 57.0827 24.0992 56.8526 24.1955 56.7474C24.2709 56.666 24.3367 56.5762 24.3917 56.4799C24.4759 56.3287 24.551 56.1727 24.6165 56.0125C25.0356 56.2016 25.4833 56.4228 25.8508 56.553C26.484 56.7795 26.9994 56.9293 27.5327 56.9293C28.1249 56.9293 28.7171 56.751 29.4591 56.4692C29.9442 56.2854 30.4918 56.0375 31.0608 55.7593C31.0822 55.8092 31.1036 55.8823 31.125 55.9287C31.2106 56.1356 31.2909 56.3122 31.389 56.4816C31.4442 56.5779 31.51 56.6676 31.5852 56.7492C31.6797 56.8526 31.826 57.0827 32.3093 57.0827C32.7909 57.0827 32.9407 56.8526 33.0371 56.7474C33.1124 56.666 33.1783 56.5762 33.2333 56.4799C33.3314 56.3122 33.4098 56.1356 33.4972 55.9287C33.6703 55.5185 33.8558 55.0012 34.0323 54.4554C34.0858 54.2931 34.1215 54.1361 34.1732 53.972L34.4479 53.783C34.5139 54.0131 34.5692 54.2289 34.6441 54.4554C34.8189 55.003 35.0044 55.5185 35.1792 55.9287C35.2666 56.1356 35.3487 56.3122 35.4468 56.4816C35.502 56.5779 35.5678 56.6676 35.643 56.7492C35.7393 56.8526 35.8838 57.0827 36.3671 57.0827C36.8505 57.0827 36.9968 56.8526 37.0913 56.7474C37.1667 56.666 37.2325 56.5762 37.2875 56.4799C37.3888 56.3023 37.4782 56.1182 37.555 55.9287C37.7298 55.5185 37.9153 55.0012 38.0901 54.4554C38.1757 54.1968 38.2382 53.9471 38.3149 53.6867L38.7394 51.9369L38.7822 51.5267C38.7822 51.1521 38.6877 50.7972 38.5325 50.4779C38.7679 50.2496 38.9962 50.0195 39.2245 49.7823C39.6526 50.3709 39.9933 50.7918 39.9933 50.7918C40.077 50.8903 40.1811 50.9695 40.2985 51.0237C40.4158 51.078 40.5436 51.1061 40.6728 51.1061C40.8021 51.1061 40.9299 51.078 41.0472 51.0237C41.1646 50.9695 41.2687 50.8903 41.3524 50.7918C41.3524 50.7918 46.8353 44.4224 46.8353 36.3657C46.8353 29.1116 42.5796 23.4878 41.6931 22.3891C42.2239 20.9115 42.4972 19.3537 42.5011 17.7837C42.5011 15.6076 41.9678 13.5671 41.0742 11.746L41.5129 11.5088C43.4393 10.4672 44.8662 8.33393 44.8662 6.24885V1.15654C44.8662 0.946073 44.8377 0.821218 44.8359 0.799814C44.8143 0.578155 44.7096 0.372887 44.5428 0.225299C44.376 0.0777109 44.1596 -0.00124664 43.9369 0.00430863C43.7254 0.0106172 43.5232 0.0928486 43.3673 0.235969C43.2114 0.379089 43.1122 0.573537 43.0879 0.783761C42.9149 2.33375 41.5058 4.42061 39.9523 5.26071L38.7215 5.92601H38.718L37.0396 6.83567C34.7155 5.08363 31.8844 4.13573 28.9739 4.13523H26.0862V4.1388C25.9892 4.13863 25.8928 4.15429 25.8008 4.18517C22.992 4.23455 20.2693 5.16271 18.0152 6.83924L16.3261 5.92244L15.0918 5.25714C13.5383 4.41705 12.1345 2.33018 11.9597 0.780194C11.9343 0.559215 11.8261 0.356051 11.6571 0.211477C11.488 0.0669043 11.2705 -0.00837766 11.0483 0.000741338H11.0465ZM14.2553 6.80713C13.3421 6.31306 12.5965 5.52826 11.9365 4.70065V6.24707C11.9365 7.39752 13.0923 9.26499 14.3712 9.95705L15.4343 10.5314C15.4861 10.5487 15.5363 10.5708 15.5841 10.5974L16.6222 11.1592L19.1853 12.5451C19.2152 12.5589 19.2444 12.5744 19.2727 12.5915L21.2365 13.6528L22.485 14.3288L22.5225 14.3537C22.5333 14.3595 22.544 14.3654 22.5546 14.3716C22.5624 14.3755 22.5692 14.381 22.5757 14.3864C22.5781 14.3883 22.5804 14.3902 22.5828 14.392C22.5858 14.3944 22.5889 14.3965 22.592 14.3983C22.6041 14.4064 22.616 14.4147 22.6277 14.4233C23.3009 14.8167 23.9097 15.3112 24.4328 15.8894V14.7051C24.4328 14.1076 24.1884 13.2354 23.7603 12.5148C23.3305 11.7942 22.7329 11.2448 22.1497 11.0576C22.0967 11.0416 22.0454 11.0207 21.9963 10.9951L20.0432 9.93921L15.4896 7.47243L14.2553 6.80713ZM43.1075 6.24707C43.1075 7.39752 41.9553 9.26499 40.6764 9.95705L39.5866 10.5456C39.5498 10.5611 39.514 10.5789 39.4796 10.5992L38.4397 11.1592L35.8035 12.5861C35.7975 12.589 35.7916 12.592 35.7857 12.5951L33.8237 13.6563L32.5751 14.3341C32.5148 14.3633 32.4579 14.3992 32.4057 14.4411C31.7404 14.8282 31.1428 15.333 30.6149 15.9073V14.7087C30.6149 14.1112 30.8592 13.2372 31.2873 12.5184C31.7172 11.7978 32.3147 11.2484 32.8979 11.0611C32.9498 11.0438 33 11.0217 33.0478 10.9951L35.0009 9.93921L39.5581 7.47243L40.7906 6.80713C41.7048 6.31351 42.448 5.53145 43.1075 4.70466V4.70421L43.1093 4.70243L43.1075 4.70466V6.24707ZM28.9757 5.91887H26.0862C23.8514 5.92474 21.6662 6.57837 19.7953 7.80062L20.878 8.38566L22.8364 9.44514C23.9084 9.84111 24.7146 10.6812 25.2711 11.6158C25.8561 12.5951 26.1897 13.6866 26.1897 14.7051V15.7789C26.5749 15.6005 26.9941 15.4935 27.4382 15.4935C27.9344 15.4955 28.422 15.6225 28.8562 15.8627V14.7087C28.8562 13.6902 29.1915 12.5951 29.7766 11.6158C30.3331 10.6812 31.1411 9.84468 32.2112 9.44871L34.1661 8.38922L35.2631 7.79705C33.3927 6.57672 31.2089 5.92437 28.9757 5.91887ZM15.7749 12.7306L15.7018 12.6878C14.9491 14.2521 14.3427 15.9144 14.3427 17.7783C14.3427 19.0875 14.6441 20.3111 15.033 21.4883H15.2773C15.2844 21.4882 15.2916 21.4882 15.2987 21.4883C16.6257 21.5204 17.992 21.672 19.3672 21.9485C22.7758 22.637 25.5386 24.0354 27.5292 25.7762C29.5197 24.0354 32.2808 22.637 35.6911 21.9485C37.1626 21.6488 38.6056 21.5775 40.0147 21.5597C40.4178 20.3646 40.7174 19.1143 40.7174 17.7783C40.7174 15.9162 40.1128 14.2521 39.3583 12.6878L39.287 12.7306L37.5336 13.6777C37.9449 14.3694 38.1652 15.1579 38.1722 15.9626C38.1722 18.4525 36.146 20.4966 33.6667 20.4966C32.3076 20.4948 31.0465 19.8652 30.2046 18.8378C30.1459 19.1113 30.0775 19.3825 29.9995 19.6512C29.839 20.2273 29.6267 20.8819 29.4002 21.5061C29.1737 22.1304 28.9347 22.7226 28.7135 23.1881C28.6029 23.4218 28.4977 23.6215 28.3764 23.8053C28.311 23.909 28.2338 24.0047 28.1463 24.0906C28.1374 24.0991 28.1281 24.1082 28.1184 24.1178C28.0093 24.2249 27.841 24.3903 27.4382 24.3903C27.0274 24.3903 26.8574 24.2199 26.7495 24.1118C26.7465 24.1088 26.7436 24.1058 26.7407 24.103C26.7365 24.0987 26.7324 24.0946 26.7283 24.0906C26.6406 24.0049 26.5634 23.9091 26.4982 23.8053C26.3769 23.6215 26.2753 23.42 26.1629 23.1881C25.6508 22.0416 25.2204 20.8602 24.8751 19.6529C24.8091 19.4193 24.7574 19.2177 24.711 19.018C23.8727 19.9383 22.6741 20.4913 21.3934 20.4913C18.9142 20.4913 16.8897 18.449 16.8897 15.9608C16.8955 15.1572 17.1139 14.3695 17.5229 13.6777L15.7749 12.7306ZM20.3875 15.2259L19.237 14.6017C19.2071 14.6508 19.1766 14.6998 19.1461 14.7489L19.1461 14.749L19.146 14.7491L19.146 14.7492L19.1459 14.7493L19.1459 14.7494L19.1458 14.7495L19.1457 14.7496L19.1457 14.7497L19.1456 14.7498L19.1456 14.7499L19.1455 14.75L19.1454 14.7501L19.1454 14.7502C19.116 14.7975 19.0866 14.8448 19.0576 14.8923C18.8549 15.225 18.6734 15.5669 18.6734 15.9644C18.6734 17.4983 19.8862 18.7112 21.3934 18.7112C22.205 18.7094 22.7989 18.1226 23.3073 17.509C23.0023 17.1416 22.6919 16.7706 22.3584 16.4549C22.268 16.635 22.13 16.7864 21.9597 16.8921C21.7894 16.9979 21.5934 17.054 21.3934 17.0542C21.1063 17.0542 20.8309 16.939 20.6279 16.7339C20.4248 16.5289 20.3108 16.2508 20.3108 15.9608C20.3107 15.7225 20.3878 15.4908 20.5301 15.3008L20.3875 15.2259ZM36.3885 15.9626C36.387 15.5134 36.1531 15.1348 35.9207 14.7585L35.9206 14.7584L35.9205 14.7582L35.9204 14.758L35.9203 14.7579L35.9202 14.7577C35.8888 14.7069 35.8574 14.6561 35.8267 14.6052L34.6744 15.2241L34.5318 15.3008C34.6738 15.4903 34.7508 15.7214 34.7511 15.959C34.7514 16.1029 34.7235 16.2454 34.6691 16.3784C34.6147 16.5114 34.5348 16.6322 34.434 16.7339C34.3333 16.8357 34.2136 16.9163 34.082 16.9713C33.9503 17.0262 33.8092 17.0544 33.6667 17.0542C33.4667 17.054 33.2707 16.9979 33.1004 16.8921C32.9301 16.7864 32.7921 16.635 32.7017 16.4549C32.37 16.7706 32.0561 17.1398 31.7511 17.509C32.2612 18.1226 32.8551 18.7112 33.6667 18.7112C35.1757 18.7112 36.3885 17.4965 36.3885 15.9626ZM28.4977 18.1654C28.4977 17.7052 28.0839 17.2771 27.4382 17.2771C26.7925 17.2771 26.3752 17.7052 26.3752 18.1654C26.4276 18.5047 26.5003 18.8407 26.5928 19.1714C26.7372 19.6886 26.9388 20.3093 27.1528 20.8961C27.2156 21.0685 27.2748 21.2073 27.3349 21.3485C27.3687 21.4279 27.4029 21.508 27.4382 21.5953C27.4682 21.5216 27.4972 21.4526 27.5258 21.3847L27.5259 21.3845C27.5907 21.2305 27.6532 21.0817 27.72 20.8961C27.9341 20.3093 28.1374 19.6886 28.2819 19.1714C28.4263 18.6541 28.4977 18.1832 28.4977 18.1654ZM19.014 23.6947C18.033 23.4985 17.0627 23.3897 16.1067 23.329C17.5437 25.4172 18.6786 27.6978 19.4778 30.1033C21.4255 28.4784 24.035 27.5937 26.9013 27.4814C25.2354 25.8297 22.4565 24.3903 19.014 23.6947ZM35.5805 30.1051C36.3798 27.7001 37.5147 25.4201 38.9516 23.3326C37.9753 23.3862 37.0057 23.5072 36.0461 23.6947C32.6054 24.3903 29.8265 25.8297 28.1606 27.4831C31.0251 27.5955 33.6346 28.4784 35.5805 30.1051ZM18.1543 31.7568C17.1394 27.8827 15.1364 25.1216 14.3891 24.1477C13.3706 25.4748 10.0102 30.0962 10.0102 36.3603C10.0102 42.6263 13.3706 47.2531 14.3891 48.5783C14.6298 48.2644 15.0187 47.7364 15.4468 47.0747C16.071 46.0509 16.7417 44.8344 17.3428 43.3183C17.7695 42.2499 18.1095 41.1488 18.3594 40.0257V40.0222C18.6238 38.8199 18.7607 37.5931 18.7679 36.3621C18.7679 36.2659 18.7596 36.1747 18.7514 36.0836C18.7448 36.0107 18.7382 35.938 18.7358 35.8627C18.6912 34.5178 18.5004 33.214 18.1829 31.9833C18.1637 31.9093 18.1541 31.8332 18.1543 31.7568ZM45.0517 36.3621C45.0517 30.0962 41.6895 25.4748 40.6728 24.1477C39.9273 25.1198 37.9243 27.8791 36.9076 31.7461C36.9087 31.826 36.8991 31.9058 36.879 31.9833C36.5223 33.3674 36.2904 34.8353 36.2904 36.3621C36.2955 37.0258 36.3383 37.6886 36.4189 38.3473C36.6399 40.0527 37.0768 41.7231 37.7191 43.3183C37.7216 43.3231 37.7239 43.3278 37.7263 43.3326C38.3202 44.8291 38.9855 46.0366 39.6027 47.0533C39.9389 47.5763 40.2959 48.0856 40.6728 48.5801C41.6913 47.2531 45.0517 42.6263 45.0517 36.3621ZM35.0009 32.0867C33.2832 30.2977 30.6523 29.2418 27.5274 29.2418L27.5292 29.24C24.4042 29.24 21.7751 30.3013 20.0557 32.0939C20.3705 33.4595 20.5355 34.8555 20.548 36.2569C20.548 36.2747 20.5498 36.2921 20.5515 36.3095C20.5533 36.3269 20.5551 36.3443 20.5551 36.3621C20.5551 36.3931 20.5525 36.4236 20.5498 36.4544C20.5471 36.4856 20.5444 36.5171 20.5444 36.5494C20.5373 37.1273 20.498 37.6909 20.4392 38.2492V38.2564C20.2398 40.0325 19.8174 41.7764 19.1817 43.4468C20.3001 45.1662 22.032 46.7465 23.7211 47.8506H23.7247C24.1466 48.1266 24.5791 48.386 25.0214 48.6283H25.0249C25.4007 48.8359 25.7852 49.0275 26.1772 49.2026H26.1807C26.5303 49.356 26.8567 49.463 27.1011 49.5343C27.3455 49.6039 27.5113 49.6342 27.5327 49.6342C27.6775 49.6105 27.8205 49.5771 27.9608 49.5343C28.207 49.463 28.5334 49.356 28.8847 49.2026C29.5839 48.8958 30.449 48.4338 31.3408 47.8524C33.0299 46.7465 34.7618 45.1662 35.8802 43.4468C35.1043 41.3545 34.5068 38.9662 34.5068 36.3621C34.5068 34.8692 34.6941 33.4334 35.0009 32.0867ZM22.6099 49.2436C21.1205 48.2555 19.5795 46.9712 18.3559 45.4373C17.8618 46.4897 17.3535 47.4475 16.8755 48.2216C17.2625 48.6514 17.6852 49.0635 18.1169 49.4701C18.4914 49.224 18.9338 49.0777 19.4118 49.0777C19.8181 49.0804 20.2171 49.1858 20.5717 49.3841C20.9263 49.5825 21.2249 49.8673 21.4398 50.2121C21.7173 49.7734 22.1271 49.4343 22.6099 49.2436ZM38.1882 48.2234C37.712 47.451 37.2019 46.4897 36.7042 45.4373C35.5342 46.9088 34.0716 48.1413 32.6411 49.1116C32.9863 49.1617 33.3165 49.286 33.609 49.476C33.9016 49.666 34.1494 49.9171 34.3356 50.2121C34.7654 49.5343 35.5145 49.0777 36.3671 49.0777C36.6559 49.0794 36.942 49.1345 37.2108 49.24C37.5515 48.9101 37.8779 48.5694 38.1882 48.2234ZM29.8978 51.5088C29.8994 51.1956 29.9612 50.8855 30.0798 50.5956C30.0171 50.6262 29.9522 50.6602 29.8873 50.6943L29.8871 50.6943L29.8868 50.6945C29.7892 50.7457 29.6917 50.7968 29.6018 50.8364H29.5982C29.5104 50.8748 29.4328 50.9034 29.3562 50.9317L29.3561 50.9318C29.2973 50.9535 29.2391 50.975 29.1773 51.0005C29.1231 51.0223 29.0683 51.0448 29.0135 51.0674L29.0134 51.0675C28.839 51.1393 28.6644 51.2112 28.5084 51.2573C28.1731 51.359 27.8556 51.4214 27.5292 51.4214C26.9816 51.4214 26.4447 51.2359 25.8187 50.9755C25.8597 51.1521 25.8846 51.3358 25.8846 51.5231V51.5338L25.9048 51.5336C26.4419 51.5283 26.9725 51.5231 27.5292 51.5231C28.3535 51.5231 29.1162 51.5337 29.8838 51.5443L29.8978 51.5445L29.8943 51.5267L29.8978 51.5088ZM19.9933 51.2538C19.8987 51.013 19.6758 50.8614 19.4136 50.8614H19.4118C19.1942 50.8614 19.023 50.9702 18.8981 51.1913C18.8767 51.2262 18.8528 51.2596 18.8268 51.2912C18.8036 51.3626 18.7857 51.4393 18.7857 51.5231C18.8255 51.8183 18.8809 52.1113 18.9516 52.4007C19.0801 52.9059 19.2253 53.4068 19.3868 53.9025L19.4118 53.9756C19.4123 53.9739 19.4129 53.9722 19.4134 53.9706C19.4149 53.9663 19.4163 53.9623 19.4178 53.9585C19.418 53.9581 19.4181 53.9577 19.4183 53.9573C19.4255 53.9388 19.4331 53.9239 19.4386 53.9007C19.5812 53.4637 19.7061 53.0232 19.8131 52.6165C19.8156 52.5992 19.8186 52.5819 19.822 52.5648C19.9558 52.0511 20.0307 51.5695 20.0361 51.557L20.0432 51.5267C20.0433 51.4334 20.0263 51.341 19.9933 51.2538ZM24.0528 51.2502C23.9565 51.0094 23.7336 50.8614 23.4714 50.8614C23.346 50.8586 23.2229 50.8944 23.1185 50.964C23.0142 51.0335 22.9338 51.1334 22.8881 51.2502V51.2556C22.8559 51.3411 22.8396 51.4317 22.84 51.5231V51.5267C22.8829 51.8027 22.9365 52.077 23.0005 52.3489C23.0986 52.7503 23.2359 53.2265 23.384 53.6956C23.3848 53.6976 23.3856 53.6996 23.3864 53.7016L23.3875 53.7045C23.3917 53.7187 23.3956 53.7327 23.3993 53.7466C23.4025 53.7583 23.4056 53.7699 23.4087 53.7815C23.4193 53.8213 23.4297 53.8603 23.4428 53.9007C23.4464 53.915 23.4518 53.9257 23.4571 53.9364C23.5802 53.5672 23.7033 53.1944 23.8049 52.8376L23.862 52.6415C23.9564 52.2838 24.0338 51.9219 24.0939 51.557L24.101 51.5267V51.5213C24.1014 51.4299 24.0851 51.3393 24.0528 51.2538V51.2502ZM32.5555 50.906C32.4771 50.8751 32.3935 50.86 32.3093 50.8614C32.2246 50.8597 32.1403 50.8749 32.0614 50.906C31.9867 50.9385 31.9193 50.9858 31.8634 51.0451C31.7528 51.161 31.6815 51.3269 31.6815 51.5231L31.7279 51.755C31.7306 51.7724 31.7333 51.7906 31.7362 51.8098C31.76 51.9668 31.793 52.1853 31.8884 52.5398C32.0026 52.9732 32.1595 53.478 32.3165 53.9542C32.317 53.9525 32.3177 53.9508 32.3183 53.949C32.319 53.9473 32.3197 53.9456 32.3204 53.9438C32.3216 53.9406 32.323 53.9374 32.3244 53.9341C32.3286 53.9243 32.3329 53.914 32.3361 53.9025C32.3803 53.7654 32.417 53.6344 32.4542 53.5016C32.4771 53.4201 32.5001 53.338 32.5252 53.2532C32.5303 53.2244 32.5368 53.1958 32.5448 53.1676C32.6554 52.7895 32.7535 52.4256 32.8248 52.126L32.939 51.5213C32.9398 51.4299 32.9234 51.3392 32.8908 51.2538C32.8608 51.1764 32.8157 51.1058 32.7582 51.0461C32.7006 50.9864 32.6317 50.9388 32.5555 50.906ZM36.3814 50.8649L36.3671 50.8614C36.2824 50.8597 36.1981 50.8749 36.1192 50.906C36.0435 50.9382 35.9749 50.9853 35.9176 51.0444C35.8604 51.1035 35.8155 51.1735 35.7857 51.2502C35.7526 51.3374 35.7356 51.4299 35.7357 51.5231C35.7357 51.464 35.7496 51.5449 35.7728 51.6808C35.7945 51.8074 35.8244 51.9817 35.8588 52.1349C35.8646 52.1662 35.8688 52.1977 35.8713 52.2294C35.8788 52.2642 35.8825 52.2842 35.8859 52.3025C35.8906 52.3275 35.8946 52.3492 35.907 52.4007C36.0193 52.8501 36.1745 53.3906 36.3386 53.9025L36.3636 53.9738C36.3648 53.9707 36.366 53.9677 36.3672 53.9649C36.3696 53.9592 36.3719 53.954 36.3741 53.9489C36.3804 53.9344 36.3863 53.9211 36.3921 53.9025C36.5536 53.4068 36.6988 52.9059 36.8273 52.4007C36.9397 51.9494 36.9985 51.5213 36.9985 51.5213C36.9985 51.3519 36.9415 51.2056 36.8523 51.0932C36.8218 51.0725 36.7926 51.0498 36.7649 51.0255C36.6622 50.9251 36.525 50.8676 36.3814 50.8649ZM30.2635 53.3299C30.1777 53.3289 30.0918 53.3278 30.0057 53.3267C29.9264 53.3257 29.847 53.3247 29.7674 53.3237C29.0409 53.3144 28.3016 53.305 27.5292 53.305C26.8603 53.305 26.1914 53.3115 25.5226 53.321H25.519C25.4997 53.3909 25.4806 53.4607 25.4615 53.5305C25.3889 53.7958 25.3162 54.0616 25.2301 54.3341C25.3244 54.3774 25.42 54.4218 25.5154 54.4662C25.5156 54.4663 25.5158 54.4664 25.516 54.4665C25.8534 54.6232 26.1878 54.7787 26.4518 54.8746C26.9923 55.0672 27.4329 55.1457 27.5327 55.1457C27.6576 55.1457 28.1855 55.044 28.8277 54.8014C29.2602 54.6371 29.8141 54.3625 30.3635 54.0902C30.3985 54.0728 30.4336 54.0554 30.4686 54.038C30.4008 53.8151 30.3384 53.601 30.2778 53.3834L30.2635 53.3299Z" fill="#F3F3F3"/>
<path fill-rule="evenodd" clip-rule="evenodd" d="M43.1093 4.70243L43.1075 4.70466V4.70421L43.1093 4.70243Z" fill="#F3F3F3"/>
</svg>
