<svg width="35" height="64" viewBox="0 0 35 64" fill="none" xmlns="http://www.w3.org/2000/svg">
<path d="M17.4993 62.7587C26.2852 62.7587 33.4327 55.6111 33.4327 46.8254C33.4327 38.0397 26.2852 30.8921 17.4993 30.8921C8.71354 30.8921 1.56602 38.0397 1.56602 46.8254C1.56602 55.6111 8.71354 62.7587 17.4993 62.7587ZM17.4993 31.5792C25.906 31.5792 32.7455 38.4187 32.7455 46.8254C32.7455 55.2321 25.906 62.0716 17.4993 62.0716C9.09269 62.0716 2.2532 55.2321 2.2532 46.8254C2.2532 38.4187 9.09269 31.5792 17.4993 31.5792Z" fill="white" stroke="white" stroke-width="0.2"/>
<path d="M15.0362 44.268L5.93509 40.8078C5.93507 40.8078 5.93505 40.8078 5.93503 40.8078C5.93081 40.8062 5.92666 40.8045 5.92257 40.8027C5.60387 41.4131 5.33235 42.0516 5.11218 42.7135L15.0362 44.268ZM15.0362 44.268C14.5071 44.8618 14.1839 45.6433 14.1839 46.4998C14.1839 46.6076 14.1906 46.7133 14.2016 46.817L5.12966 42.7208L15.0362 44.268ZM3.75937 46.824C3.75937 54.0746 9.40481 60.0271 16.5302 60.527C16.535 60.5279 16.5412 60.5286 16.5485 60.5286L16.5512 60.5286C16.8643 60.5501 17.1802 60.565 17.5004 60.565C17.837 60.565 18.169 60.5488 18.498 60.5249C18.5033 60.5262 18.5098 60.5274 18.5173 60.5279L18.5173 60.5279L18.5204 60.5281C18.5257 60.5283 18.5336 60.5286 18.5416 60.5286C18.5744 60.5286 18.6051 60.5203 18.6227 60.5153C25.6761 59.9419 31.2414 54.0229 31.2414 46.824C31.2414 39.247 25.0773 33.083 17.5004 33.083C9.92351 33.083 3.75937 39.247 3.75937 46.824ZM16.555 60.5285C16.5548 60.5285 16.5542 60.5285 16.5536 60.5285L16.5546 60.5285L16.555 60.5285ZM29.8726 42.668C29.8714 42.6685 29.8702 42.6691 29.869 42.6696L29.8688 42.6697L20.8898 46.8047C20.9 46.7049 20.9062 46.6034 20.9062 46.4998C20.9062 45.6557 20.5916 44.8852 20.0763 44.2949L29.1263 40.9002L29.1264 40.9002C29.1266 40.9001 29.1268 40.9 29.127 40.8999C29.4171 41.4668 29.6669 42.0572 29.8726 42.668ZM15.6157 43.7532L6.26161 40.1968C8.53634 36.3539 12.7212 33.7702 17.5004 33.7702C22.3185 33.7702 26.5326 36.396 28.7944 40.2907L19.5048 43.7752C18.9528 43.3767 18.277 43.1387 17.545 43.1387C16.8265 43.1387 16.1621 43.368 15.6157 43.7532ZM16.8711 59.8618L16.1678 49.563C16.5883 49.7534 17.0539 49.8611 17.545 49.8611C18.0395 49.8611 18.5085 49.7521 18.9313 49.5593L18.2197 59.8556C17.9809 59.8691 17.7415 59.8779 17.5004 59.8779C17.2896 59.8779 17.0799 59.872 16.8711 59.8618ZM14.8711 46.4998C14.8711 45.0254 16.0707 43.8259 17.545 43.8259C19.0194 43.8259 20.219 45.0254 20.219 46.4998C20.219 47.9741 19.0193 49.1739 17.545 49.1739C16.0707 49.1739 14.8711 47.9741 14.8711 46.4998ZM20.7002 47.6486L30.0756 43.331C30.3854 44.4436 30.5542 45.6142 30.5542 46.824C30.5542 53.5447 25.4485 59.0949 18.9123 59.8011L19.6508 49.1143C20.1226 48.7335 20.4884 48.2285 20.7002 47.6486ZM15.449 49.1217L16.1787 59.8088C9.59951 59.1439 4.44655 53.5753 4.44655 46.824C4.44655 45.6307 4.61098 44.4757 4.91263 43.3767L14.3933 47.6575C14.607 48.2375 14.975 48.7421 15.449 49.1217Z" fill="white" stroke="white" stroke-width="0.2"/>
<path fill-rule="evenodd" clip-rule="evenodd" d="M7.66828 0.00044294V0.00257435C7.5417 0.00811717 7.42136 0.0591256 7.32935 0.146238C7.23735 0.23335 7.17984 0.350723 7.1674 0.476813C7.16633 0.489602 7.14821 0.564201 7.14821 0.692086V3.73361C7.14821 4.98048 8.00078 6.254 9.15281 6.87744L9.42349 7.02237C8.8671 8.14185 8.57576 9.37434 8.572 10.6245C8.572 11.5942 8.74997 12.5182 9.05476 13.3772C8.52617 14.0347 5.9834 17.3938 5.9834 21.728C5.9834 26.5418 9.25938 30.3475 9.25938 30.3475C9.3094 30.4063 9.37162 30.4536 9.44173 30.486C9.51184 30.5185 9.58816 30.5352 9.66541 30.5352C9.74266 30.5352 9.81898 30.5185 9.88909 30.486C9.9592 30.4536 10.0214 30.4063 10.0714 30.3475C10.0714 30.3475 10.275 30.0981 10.5372 29.7368C10.7737 29.9883 11.0157 30.2313 11.2661 30.4615C11.2416 30.567 11.2267 30.6746 11.2267 30.7865C11.2267 30.859 11.2384 30.9293 11.248 30.9997L11.4974 32.0473C11.5453 32.2124 11.5847 32.3723 11.638 32.5375C11.7446 32.8636 11.8544 33.1716 11.9588 33.4167C12.011 33.5403 12.0579 33.6458 12.1176 33.7471C12.1502 33.8045 12.1892 33.8581 12.2338 33.9069C12.2913 33.9687 12.3776 34.1062 12.6664 34.1062C12.9552 34.1062 13.0448 33.9687 13.1012 33.9058C13.1463 33.8572 13.1856 33.8036 13.2185 33.746C13.2771 33.6458 13.325 33.5403 13.3762 33.4167C13.4806 33.1716 13.5915 32.8625 13.697 32.5364C13.7151 32.4821 13.7279 32.4298 13.7449 32.3744C13.8568 32.4448 13.9709 32.5236 14.0796 32.5886C14.1797 32.8945 14.2842 33.1865 14.3822 33.4167C14.4334 33.5403 14.4824 33.6458 14.5421 33.7471C14.5751 33.8046 14.6144 33.8582 14.6593 33.9069C14.7158 33.9687 14.8032 34.1062 15.092 34.1062C15.3797 34.1062 15.4671 33.9687 15.5247 33.9058C15.5697 33.8572 15.609 33.8036 15.6419 33.746C15.6922 33.6557 15.737 33.5624 15.7762 33.4668C16.0266 33.5797 16.2941 33.7119 16.5136 33.7897C16.892 33.925 17.1999 34.0146 17.5186 34.0146C17.8724 34.0146 18.2262 33.908 18.6696 33.7396C18.9594 33.6298 19.2866 33.4817 19.6266 33.3154C19.6393 33.3453 19.6521 33.389 19.6649 33.4167C19.7161 33.5403 19.764 33.6458 19.8226 33.7471C19.8556 33.8046 19.8949 33.8582 19.9399 33.9069C19.9964 33.9687 20.0837 34.1062 20.3725 34.1062C20.6603 34.1062 20.7498 33.9687 20.8074 33.9058C20.8524 33.8572 20.8917 33.8036 20.9246 33.746C20.9832 33.6458 21.0301 33.5403 21.0823 33.4167C21.1857 33.1716 21.2965 32.8625 21.402 32.5364C21.434 32.4394 21.4553 32.3457 21.4862 32.2476L21.6503 32.1346C21.6898 32.2721 21.7228 32.4011 21.7676 32.5364C21.872 32.8636 21.9828 33.1716 22.0873 33.4167C22.1395 33.5403 22.1885 33.6458 22.2471 33.7471C22.2801 33.8046 22.3194 33.8582 22.3644 33.9069C22.4219 33.9687 22.5082 34.1062 22.797 34.1062C23.0858 34.1062 23.1732 33.9687 23.2297 33.9058C23.2747 33.8572 23.3141 33.8036 23.3469 33.746C23.4075 33.6399 23.4609 33.5299 23.5068 33.4167C23.6112 33.1716 23.7221 32.8625 23.8265 32.5364C23.8777 32.3819 23.915 32.2327 23.9608 32.0771L24.2144 31.0316L24.24 30.7865C24.24 30.5627 24.1835 30.3507 24.0908 30.1599C24.2315 30.0235 24.3679 29.886 24.5043 29.7443C24.7601 30.096 24.9636 30.3475 24.9636 30.3475C25.0136 30.4063 25.0758 30.4536 25.146 30.486C25.2161 30.5185 25.2924 30.5352 25.3696 30.5352C25.4469 30.5352 25.5232 30.5185 25.5933 30.486C25.6634 30.4536 25.7257 30.4063 25.7757 30.3475C25.7757 30.3475 29.0517 26.5418 29.0517 21.728C29.0517 17.3938 26.5089 14.0336 25.9792 13.3772C26.2964 12.4943 26.4597 11.5636 26.462 10.6255C26.462 9.32536 26.1433 8.1062 25.6094 7.01811L25.8716 6.87637C27.0225 6.254 27.8751 4.97942 27.8751 3.73361V0.69102C27.8751 0.565267 27.8581 0.490667 27.857 0.477879C27.8441 0.34544 27.7815 0.222795 27.6819 0.134613C27.5822 0.0464313 27.4529 -0.000744852 27.3199 0.00257435C27.1935 0.00634362 27.0727 0.0554759 26.9795 0.140988C26.8864 0.226501 26.8271 0.342681 26.8126 0.468287C26.7092 1.39439 25.8673 2.64126 24.9391 3.14321L24.2038 3.54072H24.2016L23.1988 4.08422C21.8102 3.03741 20.1186 2.47105 18.3797 2.47075H16.6543V2.47288C16.5963 2.47278 16.5387 2.48214 16.4838 2.50059C14.8056 2.53009 13.1788 3.08465 11.832 4.08636L10.8228 3.53858L10.0853 3.14108C9.15707 2.63913 8.31836 1.39225 8.21392 0.466156C8.1987 0.334124 8.1341 0.212736 8.03309 0.126355C7.93208 0.0399745 7.80214 -0.00500555 7.66934 0.00044294H7.66828ZM9.58548 4.06717C9.03984 3.77197 8.59438 3.30306 8.20006 2.80858V3.73254C8.20006 4.41992 8.89064 5.53572 9.65475 5.94921L10.2899 6.29237C10.3209 6.30274 10.3509 6.31594 10.3794 6.3318L10.9997 6.66749L12.5311 7.49555C12.549 7.50381 12.5664 7.51306 12.5833 7.52325L13.7567 8.15735L14.5026 8.56125L14.525 8.57617C14.5315 8.57959 14.5379 8.58314 14.5442 8.58683C14.5489 8.58917 14.5529 8.59246 14.5568 8.59567C14.5583 8.59683 14.5597 8.59798 14.5611 8.59907C14.5629 8.60045 14.5647 8.60173 14.5666 8.60281C14.5738 8.60761 14.5809 8.61259 14.5879 8.61773C14.9901 8.85281 15.3539 9.14826 15.6664 9.49374V8.78611C15.6664 8.4291 15.5204 7.90797 15.2646 7.47743C15.0078 7.04688 14.6508 6.71865 14.3023 6.60675C14.2706 6.59722 14.24 6.58473 14.2106 6.56945L13.0437 5.93855L10.3229 4.46468L9.58548 4.06717ZM26.8243 3.73254C26.8243 4.41992 26.1359 5.53572 25.3718 5.94921L24.7206 6.30089C24.6986 6.3101 24.6773 6.32079 24.6567 6.33286L24.0354 6.66749L22.4603 7.52006C22.4567 7.52179 22.4531 7.52357 22.4496 7.52539L21.2773 8.15948L20.5313 8.56445C20.4953 8.58189 20.4613 8.60334 20.4301 8.62839C20.0326 8.85965 19.6756 9.16124 19.3601 9.5044V8.78825C19.3601 8.43124 19.5061 7.90904 19.7619 7.47956C20.0187 7.04902 20.3757 6.72078 20.7242 6.60888C20.7552 6.59854 20.7852 6.58534 20.8138 6.56945L21.9807 5.93855L24.7036 4.46468L25.44 4.06717C25.9862 3.77224 26.4303 3.30497 26.8243 2.81098V2.81071L26.8254 2.80964L26.8243 2.81098V3.73254ZM18.3807 3.53645H16.6543C15.319 3.53996 14.0134 3.93049 12.8956 4.66077L13.5424 5.01032L14.7126 5.64335C15.3531 5.87994 15.8348 6.38188 16.1673 6.94031C16.5168 7.52539 16.7161 8.1776 16.7161 8.78611V9.42767C16.9463 9.3211 17.1967 9.25716 17.4621 9.25716C17.7586 9.25836 18.0499 9.33423 18.3093 9.47776V8.78825C18.3093 8.17973 18.5097 7.52539 18.8592 6.94031C19.1917 6.38188 19.6745 5.88207 20.3139 5.64548L21.4819 5.01245L22.1374 4.65864C21.0199 3.92951 19.7151 3.53974 18.3807 3.53645ZM10.4935 7.60638L10.4498 7.5808C10 8.51543 9.6377 9.50866 9.6377 10.6223C9.6377 11.4046 9.81781 12.1356 10.0501 12.839H10.1961C10.2004 12.8389 10.2047 12.8389 10.2089 12.839C11.0018 12.8582 11.8181 12.9488 12.6398 13.1139C14.6764 13.5253 16.3271 14.3608 17.5165 15.4009C18.7058 14.3608 20.3555 13.5253 22.3931 13.1139C23.2723 12.9349 24.1345 12.8923 24.9764 12.8816C25.2172 12.1676 25.3963 11.4205 25.3963 10.6223C25.3963 9.50973 25.035 8.51543 24.5842 7.5808L24.5416 7.60638L23.494 8.17227C23.7397 8.58556 23.8714 9.05664 23.8755 9.53744C23.8755 11.0252 22.6649 12.2465 21.1835 12.2465C20.3715 12.2454 19.618 11.8692 19.115 11.2554C19.0799 11.4187 19.039 11.5808 18.9925 11.7413C18.8965 12.0855 18.7697 12.4767 18.6344 12.8496C18.499 13.2226 18.3562 13.5765 18.2241 13.8546C18.158 13.9942 18.0951 14.1136 18.0227 14.2233C17.9836 14.2853 17.9375 14.3425 17.8852 14.3939C17.8799 14.3989 17.8743 14.4044 17.8685 14.4101C17.8033 14.4741 17.7028 14.5729 17.4621 14.5729C17.2167 14.5729 17.1151 14.4711 17.0506 14.4065C17.0488 14.4047 17.0471 14.4029 17.0454 14.4012C17.0428 14.3987 17.0404 14.3962 17.038 14.3939C16.9856 14.3426 16.9394 14.2854 16.9005 14.2233C16.828 14.1136 16.7673 13.9932 16.7001 13.8546C16.3941 13.1696 16.137 12.4637 15.9307 11.7424C15.8913 11.6028 15.8604 11.4823 15.8326 11.363C15.3318 11.9129 14.6156 12.2433 13.8504 12.2433C12.3691 12.2433 11.1595 11.023 11.1595 9.53637C11.163 9.05624 11.2935 8.58558 11.5379 8.17227L10.4935 7.60638ZM13.2494 9.0973L12.562 8.7243C12.5441 8.75366 12.5259 8.78296 12.5077 8.8123L12.5077 8.81236L12.5076 8.81241L12.5076 8.81247L12.5076 8.81253L12.5075 8.81259L12.5075 8.81265L12.5075 8.8127L12.5074 8.81276L12.5074 8.81282L12.5074 8.81288L12.5073 8.81293L12.5073 8.81299L12.5073 8.81305C12.4897 8.8413 12.4721 8.86958 12.4548 8.89798C12.3337 9.09674 12.2252 9.30103 12.2252 9.5385C12.2252 10.455 12.9499 11.1797 13.8504 11.1797C14.3353 11.1786 14.6902 10.828 14.9939 10.4614C14.8117 10.2419 14.6263 10.0202 14.427 9.83157C14.373 9.9392 14.2905 10.0296 14.1888 10.0928C14.087 10.156 13.9699 10.1896 13.8504 10.1896C13.6789 10.1896 13.5143 10.1208 13.393 9.99831C13.2717 9.8758 13.2035 9.70963 13.2035 9.53637C13.2035 9.39402 13.2496 9.25557 13.3346 9.14206L13.2494 9.0973ZM22.8098 9.53744C22.8089 9.26908 22.6691 9.04286 22.5303 8.81803L22.5302 8.81793L22.5302 8.81783L22.5301 8.81773L22.53 8.81763L22.53 8.81753C22.5112 8.78717 22.4925 8.75684 22.4741 8.72644L21.7857 9.09624L21.7004 9.14206C21.7853 9.25527 21.8313 9.39332 21.8315 9.53531C21.8316 9.62128 21.815 9.70643 21.7825 9.78588C21.7499 9.86533 21.7022 9.93752 21.642 9.99831C21.5818 10.0591 21.5103 10.1073 21.4317 10.1401C21.353 10.173 21.2687 10.1898 21.1835 10.1896C21.0641 10.1896 20.947 10.156 20.8452 10.0928C20.7434 10.0296 20.661 9.9392 20.607 9.83157C20.4088 10.0202 20.2212 10.2408 20.039 10.4614C20.3438 10.828 20.6987 11.1797 21.1835 11.1797C22.0851 11.1797 22.8098 10.4539 22.8098 9.53744ZM18.0951 10.8536C18.0951 10.5786 17.8479 10.3229 17.4621 10.3229C17.0763 10.3229 16.8269 10.5786 16.8269 10.8536C16.8583 11.0563 16.9017 11.2571 16.957 11.4546C17.0433 11.7637 17.1637 12.1346 17.2916 12.4852C17.3291 12.5882 17.3645 12.6711 17.4004 12.7555C17.4206 12.8029 17.441 12.8508 17.4621 12.9029C17.48 12.8589 17.4974 12.8177 17.5145 12.7771L17.5145 12.777C17.5532 12.6849 17.5906 12.5961 17.6305 12.4852C17.7584 12.1346 17.8799 11.7637 17.9662 11.4546C18.0525 11.1456 18.0951 10.8642 18.0951 10.8536ZM12.4288 14.1573C11.8426 14.04 11.2629 13.975 10.6917 13.9388C11.5503 15.1864 12.2284 16.5491 12.7059 17.9863C13.8696 17.0155 15.4287 16.4869 17.1413 16.4198C16.146 15.4329 14.4856 14.5729 12.4288 14.1573ZM22.3271 17.9874C22.8046 16.5505 23.4827 15.1882 24.3412 13.9409C23.7579 13.973 23.1786 14.0453 22.6052 14.1573C20.5495 14.5729 18.8891 15.4329 17.8937 16.4208C19.6052 16.488 21.1644 17.0155 22.3271 17.9874ZM11.9151 18.9743C11.3087 16.6595 10.1119 15.0098 9.66541 14.428C9.05689 15.2208 7.0491 17.9821 7.0491 21.7248C7.0491 25.4687 9.05689 28.2331 9.66541 29.0249C9.80928 28.8374 10.0416 28.5219 10.2974 28.1265C10.6704 27.5148 11.0711 26.788 11.4302 25.8822C11.6852 25.2438 11.8883 24.5859 12.0377 23.9149V23.9127C12.1956 23.1944 12.2774 22.4614 12.2817 21.7259C12.2817 21.6684 12.2768 21.6139 12.2718 21.5595C12.2679 21.516 12.264 21.4725 12.2625 21.4275C12.2359 20.624 12.1219 19.8449 11.9322 19.1096C11.9207 19.0654 11.915 19.0199 11.9151 18.9743ZM27.9859 21.7259C27.9859 17.9821 25.9771 15.2208 25.3696 14.428C24.9242 15.0088 23.7274 16.6574 23.1199 18.9679C23.1206 19.0157 23.1149 19.0633 23.1029 19.1096C22.8897 19.9366 22.7512 20.8137 22.7512 21.7259C22.7542 22.1224 22.7798 22.5184 22.8279 22.912C22.96 23.931 23.221 24.929 23.6048 25.8822C23.6063 25.885 23.6077 25.8878 23.6091 25.8907C23.964 26.7848 24.3615 27.5063 24.7302 28.1137C24.9311 28.4262 25.1444 28.7305 25.3696 29.026C25.9782 28.2331 27.9859 25.4687 27.9859 21.7259ZM21.9807 19.1714C20.9544 18.1025 19.3825 17.4716 17.5154 17.4716L17.5165 17.4705C15.6493 17.4705 14.0785 18.1046 13.0512 19.1757C13.2392 19.9917 13.3379 20.8257 13.3453 21.663C13.3453 21.6737 13.3464 21.6841 13.3474 21.6945C13.3485 21.7049 13.3496 21.7152 13.3496 21.7259C13.3496 21.7444 13.348 21.7627 13.3464 21.781C13.3448 21.7997 13.3432 21.8185 13.3432 21.8378C13.3389 22.1831 13.3154 22.5199 13.2803 22.8534V22.8577C13.1612 23.9189 12.9088 24.9608 12.529 25.9589C13.1972 26.9862 14.232 27.9304 15.2412 28.5901H15.2433C15.4954 28.755 15.7539 28.91 16.0181 29.0548H16.0202C16.2447 29.1788 16.4744 29.2933 16.7087 29.3979H16.7108C16.9197 29.4896 17.1147 29.5535 17.2607 29.5961C17.4067 29.6377 17.5058 29.6558 17.5186 29.6558C17.6051 29.6416 17.6905 29.6217 17.7744 29.5961C17.9214 29.5535 18.1165 29.4896 18.3264 29.3979C18.7442 29.2146 19.261 28.9386 19.7939 28.5912C20.8031 27.9304 21.8379 26.9862 22.5061 25.9589C22.0425 24.7088 21.6855 23.2818 21.6855 21.7259C21.6855 20.8339 21.7974 19.976 21.9807 19.1714ZM14.5772 29.4224C13.6874 28.832 12.7666 28.0647 12.0355 27.1482C11.7403 27.777 11.4366 28.3493 11.151 28.8118C11.3823 29.0686 11.6348 29.3148 11.8927 29.5578C12.1165 29.4107 12.3808 29.3233 12.6664 29.3233C12.9092 29.3249 13.1476 29.3879 13.3595 29.5064C13.5713 29.6249 13.7498 29.7951 13.8781 30.0011C14.044 29.739 14.2888 29.5364 14.5772 29.4224ZM23.8851 28.8128C23.6006 28.3514 23.2958 27.777 22.9984 27.1482C22.2993 28.0274 21.4255 28.7638 20.5708 29.3436C20.777 29.3735 20.9743 29.4478 21.1491 29.5613C21.3239 29.6748 21.472 29.8249 21.5832 30.0011C21.84 29.5961 22.2876 29.3233 22.797 29.3233C22.9696 29.3243 23.1405 29.3572 23.3011 29.4203C23.5047 29.2231 23.6997 29.0196 23.8851 28.8128ZM18.9317 30.7759C18.9326 30.5887 18.9695 30.4035 19.0404 30.2302C19.003 30.2485 18.9642 30.2688 18.9254 30.2892L18.9253 30.2892L18.9251 30.2893C18.8668 30.3199 18.8085 30.3504 18.7548 30.3741H18.7527C18.7002 30.397 18.6539 30.4141 18.6081 30.4311L18.608 30.4311C18.5729 30.444 18.5381 30.4569 18.5012 30.4721C18.4688 30.4851 18.4361 30.4986 18.4033 30.5121L18.4032 30.5122C18.2991 30.5551 18.1948 30.598 18.1015 30.6256C17.9012 30.6864 17.7115 30.7237 17.5165 30.7237C17.1893 30.7237 16.8685 30.6128 16.4944 30.4572C16.519 30.5627 16.5339 30.6725 16.5339 30.7844V30.7908L16.5459 30.7907C16.8668 30.7875 17.1839 30.7844 17.5165 30.7844C18.009 30.7844 18.4647 30.7907 18.9233 30.7971L18.9317 30.7972L18.9296 30.7865L18.9317 30.7759ZM13.0139 30.6235C12.9574 30.4796 12.8242 30.389 12.6675 30.389H12.6664C12.5364 30.389 12.4341 30.454 12.3595 30.5862C12.3467 30.607 12.3324 30.627 12.3169 30.6459C12.303 30.6885 12.2924 30.7343 12.2924 30.7844C12.3161 30.9608 12.3492 31.1358 12.3915 31.3087C12.4683 31.6106 12.555 31.9099 12.6515 32.2061L12.6664 32.2497C12.6668 32.2487 12.6671 32.2477 12.6674 32.2468C12.6683 32.2442 12.6691 32.2418 12.67 32.2395C12.6701 32.2393 12.6702 32.239 12.6703 32.2388C12.6746 32.2277 12.6792 32.2189 12.6824 32.205C12.7677 31.9439 12.8423 31.6807 12.9062 31.4377C12.9077 31.4273 12.9095 31.417 12.9115 31.4068C12.9915 31.0998 13.0362 30.8121 13.0394 30.8046L13.0437 30.7865C13.0437 30.7308 13.0336 30.6756 13.0139 30.6235ZM15.4394 30.6213C15.3819 30.4775 15.2486 30.389 15.092 30.389C15.0171 30.3874 14.9435 30.4088 14.8812 30.4503C14.8188 30.4919 14.7708 30.5516 14.7435 30.6213V30.6245C14.7242 30.6756 14.7145 30.7298 14.7147 30.7844V30.7865C14.7404 30.9515 14.7724 31.1153 14.8106 31.2778C14.8692 31.5176 14.9513 31.8021 15.0398 32.0824C15.0402 32.0836 15.0407 32.0848 15.0412 32.086L15.0419 32.0878C15.0444 32.0963 15.0467 32.1046 15.0489 32.1129C15.0508 32.1199 15.0527 32.1269 15.0545 32.1338C15.0609 32.1575 15.0671 32.1809 15.0749 32.205C15.0771 32.2135 15.0803 32.2199 15.0835 32.2263C15.157 32.0057 15.2305 31.783 15.2913 31.5698L15.3254 31.4526C15.3818 31.2389 15.428 31.0227 15.4639 30.8046L15.4682 30.7865V30.7833C15.4684 30.7287 15.4587 30.6746 15.4394 30.6235V30.6213ZM20.5196 30.4157C20.4728 30.3972 20.4228 30.3882 20.3725 30.389C20.3219 30.388 20.2716 30.3971 20.2244 30.4157C20.1798 30.4351 20.1395 30.4634 20.1061 30.4988C20.04 30.5681 19.9974 30.6672 19.9974 30.7844L20.0251 30.9229C20.0267 30.9334 20.0284 30.9443 20.0301 30.9557C20.0443 31.0495 20.064 31.18 20.121 31.3919C20.1892 31.6508 20.283 31.9524 20.3768 32.237C20.3772 32.2359 20.3775 32.2349 20.3779 32.2339C20.3783 32.2328 20.3787 32.2318 20.3791 32.2307C20.3799 32.2288 20.3807 32.2269 20.3816 32.2249C20.384 32.2191 20.3867 32.2129 20.3885 32.2061C20.415 32.1241 20.4369 32.0459 20.4591 31.9665C20.4728 31.9179 20.4865 31.8688 20.5015 31.8181C20.5046 31.8009 20.5085 31.7838 20.5132 31.767C20.5793 31.541 20.6379 31.3236 20.6805 31.1446L20.7487 30.7833C20.7492 30.7287 20.7395 30.6745 20.72 30.6235C20.7021 30.5773 20.6751 30.5351 20.6407 30.4994C20.6063 30.4637 20.5651 30.4353 20.5196 30.4157ZM22.8056 30.3912L22.797 30.389C22.7464 30.388 22.696 30.3971 22.6489 30.4157C22.6036 30.4349 22.5627 30.463 22.5285 30.4984C22.4942 30.5337 22.4674 30.5755 22.4496 30.6213C22.4298 30.6734 22.4197 30.7287 22.4198 30.7844C22.4198 30.7491 22.428 30.7974 22.4419 30.8786C22.4549 30.9543 22.4727 31.0584 22.4933 31.1499C22.4968 31.1686 22.4993 31.1875 22.5008 31.2064C22.5053 31.2272 22.5075 31.2391 22.5095 31.2501C22.5123 31.265 22.5147 31.278 22.5221 31.3087C22.5892 31.5773 22.6819 31.9002 22.78 32.2061L22.7949 32.2487C22.7956 32.2468 22.7964 32.245 22.7971 32.2433C22.7985 32.2399 22.7999 32.2368 22.8012 32.2338C22.805 32.2251 22.8085 32.2172 22.8119 32.2061C22.9085 31.9099 22.9952 31.6106 23.072 31.3087C23.1391 31.0391 23.1743 30.7833 23.1743 30.7833C23.1743 30.6821 23.1402 30.5947 23.0869 30.5276C23.0687 30.5152 23.0512 30.5016 23.0347 30.4871C22.9733 30.4271 22.8914 30.3928 22.8056 30.3912ZM19.1502 31.864C19.0989 31.8633 19.0476 31.8627 18.9962 31.8621C18.9488 31.8615 18.9013 31.8608 18.8538 31.8602C18.4197 31.8547 17.978 31.849 17.5165 31.849C17.1168 31.849 16.7172 31.8529 16.3175 31.8586H16.3154C16.3039 31.9004 16.2925 31.9421 16.281 31.9838C16.2377 32.1423 16.1942 32.3011 16.1428 32.464C16.1991 32.4898 16.2563 32.5163 16.3133 32.5428C16.3134 32.5429 16.3135 32.543 16.3136 32.543C16.5152 32.6367 16.715 32.7296 16.8728 32.7869C17.1957 32.902 17.4589 32.9488 17.5186 32.9488C17.5932 32.9488 17.9086 32.8881 18.2923 32.7432C18.5507 32.645 18.8817 32.4809 19.2099 32.3182C19.2309 32.3078 19.2518 32.2974 19.2727 32.287C19.2322 32.1538 19.1949 32.0259 19.1587 31.8959L19.1502 31.864Z" fill="white"/>
<path fill-rule="evenodd" clip-rule="evenodd" d="M26.8254 2.80964L26.8243 2.81098V2.81071L26.8254 2.80964Z" fill="white"/>
<rect y="46.6669" width="35" height="16.6667" fill="#FFC000"/>
</svg>
