<svg width="28" height="28" viewBox="0 0 28 28" fill="#5CB1A5" xmlns="http://www.w3.org/2000/svg">
<path d="M26.8316 19.2901L24.3314 16.7899C23.5861 16.0506 22.5801 15.6338 21.5304 15.6293C20.4806 15.6248 19.4711 16.0331 18.7196 16.766C18.3186 17.1693 17.7895 17.4202 17.2235 17.4756C16.6574 17.531 16.0898 17.3874 15.6182 17.0694C13.7569 15.8273 12.1579 14.2314 10.9122 12.3725C10.5998 11.8957 10.4614 11.3257 10.5202 10.7587C10.579 10.1918 10.8314 9.66237 11.2349 9.25976C11.9612 8.5075 12.3642 7.50083 12.3576 6.4552C12.351 5.40957 11.9354 4.40805 11.1997 3.66501L8.69949 1.16482C7.95096 0.418859 6.93729 0 5.88053 0C4.82376 0 3.81008 0.418859 3.06156 1.16482L2.34219 1.88533C-1.4081 5.63561 -1.1274 13.5203 6.67547 21.3186C11.3804 26.0247 16.116 27.9953 19.956 27.9953C21.0864 28.0329 22.213 27.8452 23.2701 27.4431C24.3272 27.041 25.2937 26.4325 26.1133 25.6531L26.8338 24.9325C27.5812 24.1837 28.0007 23.1688 28.0002 22.1108C27.9998 21.0529 27.5795 20.0383 26.8316 19.2901ZM25.2246 23.3256L24.5041 24.0461C21.5493 27.0009 15.0272 26.4611 8.28014 19.7128C1.53303 12.9646 0.992082 6.43795 3.94685 3.48318L4.66168 2.7638C4.98353 2.44312 5.41936 2.26305 5.87371 2.26305C6.32805 2.26305 6.76388 2.44312 7.08573 2.7638L9.58592 5.26399C9.90193 5.58158 10.0813 6.0101 10.0858 6.45809C10.0902 6.90609 9.91941 7.33809 9.60979 7.66191C8.84186 8.43473 8.36284 9.44798 8.25298 10.5319C8.14312 11.6158 8.40909 12.7046 9.00633 13.6158C10.4218 15.734 12.2421 17.5516 14.3624 18.9639C15.2709 19.5612 16.3568 19.8288 17.4388 19.7218C18.5207 19.6149 19.5332 19.14 20.3072 18.3764C20.6304 18.0631 21.0636 17.8891 21.5137 17.8919C21.9638 17.8946 22.3949 18.0739 22.7142 18.3911L25.2144 20.8913C25.3755 21.0501 25.5037 21.2392 25.5914 21.4478C25.6792 21.6563 25.7249 21.8801 25.7259 22.1063C25.7268 22.3326 25.683 22.5568 25.597 22.766C25.511 22.9753 25.3844 23.1654 25.2246 23.3256Z" fill="#5CB1A5"/>
</svg>
