<svg width="31" height="31" viewBox="0 0 31 31" fill="none" xmlns="http://www.w3.org/2000/svg">
<path d="M29.4678 21.1806L26.7891 18.5018C25.9905 17.7097 24.9127 17.2631 23.788 17.2584C22.6632 17.2536 21.5816 17.691 20.7764 18.4763C20.3468 18.9084 19.7799 19.1772 19.1734 19.2366C18.567 19.2959 17.9588 19.142 17.4535 18.8014C15.4593 17.4705 13.7461 15.7606 12.4113 13.7689C12.0767 13.258 11.9284 12.6474 11.9913 12.0399C12.0543 11.4324 12.3248 10.8652 12.7571 10.4339C13.5353 9.62788 13.9671 8.5493 13.96 7.42898C13.953 6.30866 13.5077 5.23561 12.7194 4.43949L10.0406 1.76071C9.23862 0.961473 8.15253 0.512695 7.02029 0.512695C5.88805 0.512695 4.80196 0.961473 3.99997 1.76071L3.22921 2.53269C-0.788954 6.55085 -0.488201 14.9987 7.87202 23.3541C12.913 28.3963 17.9868 30.5076 22.1012 30.5076C23.3123 30.548 24.5194 30.3468 25.652 29.916C26.7846 29.4851 27.8202 28.8332 28.6983 27.9981L29.4703 27.2261C30.271 26.4238 30.7205 25.3364 30.72 24.2029C30.7195 23.0693 30.2692 21.9823 29.4678 21.1806ZM27.7461 25.5044L26.9741 26.2764C23.8083 29.4422 16.8204 28.8638 9.59131 21.6336C2.36226 14.4033 1.78267 7.4105 4.9485 4.24467L5.71439 3.47391C6.05923 3.13032 6.52619 2.93739 7.01298 2.93739C7.49978 2.93739 7.96674 3.13032 8.31158 3.47391L10.9904 6.15269C11.3289 6.49296 11.5211 6.95209 11.5259 7.43208C11.5307 7.91208 11.3477 8.37493 11.0159 8.72188C10.1931 9.5499 9.67991 10.6355 9.56221 11.7969C9.4445 12.9582 9.72946 14.1247 10.3694 15.101C11.886 17.3706 13.8362 19.3179 16.108 20.8312C17.0814 21.4712 18.2449 21.7578 19.4041 21.6432C20.5634 21.5287 21.6482 21.0198 22.4774 20.2017C22.8237 19.866 23.2879 19.6796 23.7701 19.6826C24.2524 19.6855 24.7142 19.8776 25.0564 20.2175L27.7351 22.8963C27.9078 23.0664 28.0451 23.269 28.1391 23.4924C28.2332 23.7159 28.2821 23.9557 28.2831 24.1981C28.2842 24.4405 28.2372 24.6807 28.1451 24.9049C28.0529 25.1291 27.9173 25.3328 27.7461 25.5044Z" fill="#FFC000"/>
</svg>
