<svg width="49" height="50" viewBox="0 0 49 50" fill="none" xmlns="http://www.w3.org/2000/svg">
<rect x="1" y="1.8125" width="46.5625" height="46.5625" rx="23.28" fill="#5CB1A5"/>
<g clip-path="url(#clip0_496_248)">
<path d="M30.8808 19.9381C29.0086 18.0639 26.4731 17.0115 23.8299 17.0115C21.1866 17.0115 18.6512 18.0639 16.779 19.9381H16.7564V19.9608C15.8243 20.8878 15.0838 21.9906 14.5775 23.206C14.0711 24.4213 13.8088 25.7252 13.8057 27.0426C13.804 28.3575 14.0606 29.6598 14.5607 30.875C15.0608 32.0902 15.7947 33.1944 16.7202 34.1244H16.7428C18.6149 35.9986 21.1504 37.0509 23.7937 37.0509C26.4369 37.0509 28.9724 35.9986 30.8446 34.1244C31.7791 33.1985 32.5221 32.0962 33.0308 30.8808C33.5395 29.6654 33.804 28.361 33.8089 27.0426C33.8129 25.729 33.5591 24.4274 33.0621 23.2123C32.5652 21.9971 31.8347 20.8923 30.9125 19.9608C30.9125 19.9608 30.9125 19.9471 30.8808 19.9381ZM31.3967 27.4971H32.8811C32.7818 29.6025 31.9543 31.607 30.5414 33.1653L29.4914 32.1108C29.4048 32.0363 29.2935 31.9974 29.1796 32.0018C29.0657 32.0062 28.9576 32.0537 28.877 32.1346C28.7964 32.2156 28.7492 32.3241 28.7448 32.4385C28.7404 32.5529 28.7792 32.6647 28.8533 32.7517L29.9033 33.8062C28.3518 35.2254 26.3559 36.0565 24.2598 36.1562V34.6653C24.2598 34.5448 24.2121 34.4292 24.1273 34.3439C24.0424 34.2587 23.9273 34.2108 23.8073 34.2108C23.6872 34.2108 23.5721 34.2587 23.4873 34.3439C23.4024 34.4292 23.3547 34.5448 23.3547 34.6653V36.1562C21.2586 36.0565 19.2628 35.2254 17.7113 33.8062L18.7657 32.7517C18.85 32.6665 18.8973 32.5513 18.8973 32.4312C18.8973 32.3112 18.85 32.1959 18.7657 32.1108C18.7237 32.0682 18.6736 32.0344 18.6185 32.0113C18.5633 31.9882 18.5042 31.9763 18.4444 31.9763C18.3847 31.9763 18.3255 31.9882 18.2704 32.0113C18.2152 32.0344 18.1652 32.0682 18.1231 32.1108L17.0732 33.1653C15.6628 31.6054 14.8357 29.6018 14.7334 27.4971H16.2223C16.3424 27.4971 16.4575 27.4493 16.5424 27.364C16.6272 27.2788 16.6749 27.1632 16.6749 27.0426C16.6749 26.9221 16.6272 26.8064 16.5424 26.7212C16.4575 26.6359 16.3424 26.5881 16.2223 26.5881H14.7334C14.8357 24.4834 15.6628 22.4798 17.0732 20.9199L18.1231 21.979C18.1654 22.0211 18.2155 22.0544 18.2707 22.077C18.3258 22.0997 18.3849 22.1111 18.4444 22.1108C18.504 22.1111 18.563 22.0997 18.6182 22.077C18.6733 22.0544 18.7234 22.0211 18.7657 21.979C18.8082 21.9367 18.8418 21.8864 18.8648 21.831C18.8878 21.7757 18.8996 21.7162 18.8996 21.6562C18.8996 21.5962 18.8878 21.5368 18.8648 21.4814C18.8418 21.426 18.8082 21.3758 18.7657 21.3335L17.7113 20.279C19.2644 18.8624 21.2592 18.0317 23.3547 17.929V19.4244C23.3547 19.545 23.4024 19.6606 23.4873 19.7458C23.5721 19.8311 23.6872 19.879 23.8073 19.879C23.9273 19.879 24.0424 19.8311 24.1273 19.7458C24.2121 19.6606 24.2598 19.545 24.2598 19.4244V17.929C26.3553 18.0317 28.3501 18.8624 29.9033 20.279L28.8533 21.3335C28.7681 21.4185 28.72 21.534 28.7196 21.6546C28.7191 21.7753 28.7664 21.8911 28.851 21.9767C28.9357 22.0623 29.0507 22.1106 29.1708 22.111C29.2909 22.1115 29.4062 22.064 29.4914 21.979L30.5414 20.9199C31.9543 22.4782 32.7818 24.4827 32.8811 26.5881H31.3967C31.2767 26.5881 31.1616 26.6359 31.0767 26.7212C30.9918 26.8064 30.9441 26.9221 30.9441 27.0426C30.9441 27.1632 30.9918 27.2788 31.0767 27.364C31.1616 27.4493 31.2767 27.4971 31.3967 27.4971Z" fill="#343332"/>
<path d="M27.5277 22.6653L24.7535 25.4517C24.4693 25.2748 24.142 25.1804 23.8076 25.179C23.4407 25.179 23.0819 25.2883 22.7768 25.493C22.4717 25.6978 22.2338 25.9889 22.0934 26.3294C21.953 26.6699 21.9162 27.0447 21.9878 27.4062C22.0594 27.7677 22.2361 28.0997 22.4956 28.3604C22.7551 28.621 23.0857 28.7985 23.4457 28.8704C23.8056 28.9423 24.1787 28.9054 24.5177 28.7644C24.8568 28.6233 25.1466 28.3844 25.3504 28.078C25.5543 27.7715 25.6631 27.4112 25.6631 27.0426C25.6631 26.7073 25.5707 26.3785 25.3961 26.0926L28.1658 23.3062C28.2501 23.2211 28.2974 23.1059 28.2974 22.9858C28.2974 22.8657 28.2501 22.7505 28.1658 22.6653C28.081 22.5807 27.9663 22.5331 27.8467 22.5331C27.7272 22.5331 27.6125 22.5807 27.5277 22.6653ZM23.8076 27.9971C23.6197 27.9971 23.4359 27.9412 23.2796 27.8363C23.1234 27.7314 23.0015 27.5823 22.9296 27.4079C22.8577 27.2335 22.8389 27.0415 22.8755 26.8564C22.9122 26.6712 23.0027 26.5011 23.1356 26.3676C23.2685 26.2341 23.4379 26.1432 23.6222 26.1064C23.8066 26.0696 23.9977 26.0885 24.1713 26.1607C24.345 26.233 24.4934 26.3553 24.5979 26.5123C24.7023 26.6693 24.758 26.8538 24.758 27.0426C24.758 27.2958 24.6579 27.5385 24.4797 27.7176C24.3014 27.8966 24.0597 27.9971 23.8076 27.9971Z" fill="#343332"/>
<path d="M35.5693 16.829L34.3655 15.6153C34.3227 15.5727 34.272 15.5389 34.2162 15.5159C34.1604 15.4929 34.1006 15.4812 34.0403 15.4814C33.98 15.4816 33.9203 15.4937 33.8647 15.5171C33.8091 15.5405 33.7586 15.5746 33.7161 15.6176C33.6736 15.6606 33.6399 15.7116 33.617 15.7676C33.5942 15.8236 33.5825 15.8837 33.5827 15.9442C33.5829 16.0048 33.595 16.0647 33.6183 16.1206C33.6415 16.1765 33.6755 16.2272 33.7183 16.2699L34.6235 17.179L33.3337 18.4744C31.276 16.158 28.4532 14.6678 25.3867 14.279V12.4608H26.242C26.3621 12.4608 26.4772 12.4129 26.562 12.3277C26.6469 12.2424 26.6946 12.1268 26.6946 12.0063V10.3608C26.6946 10.2402 26.6469 10.1246 26.562 10.0394C26.4772 9.95414 26.3621 9.90625 26.242 9.90625H21.3725C21.2525 9.90625 21.1373 9.95414 21.0525 10.0394C20.9676 10.1246 20.9199 10.2402 20.9199 10.3608V11.9881C20.9199 12.1086 20.9676 12.2242 21.0525 12.3095C21.1373 12.3947 21.2525 12.4426 21.3725 12.4426H22.2369V14.2608C19.9375 14.5494 17.7606 15.4643 15.9418 16.9063L14.5841 15.5426L15.4892 14.6335C15.5444 14.5447 15.5674 14.4394 15.5543 14.3356C15.5411 14.2317 15.4927 14.1355 15.4171 14.0634C15.3416 13.9912 15.2435 13.9475 15.1396 13.9396C15.0356 13.9316 14.9321 13.96 14.8466 14.0199L12.4254 16.4472C12.3835 16.4895 12.3503 16.5398 12.3277 16.5951C12.3052 16.6503 12.2937 16.7095 12.2939 16.7692C12.2943 16.8898 12.3424 17.0054 12.4276 17.0903C12.4698 17.1324 12.5199 17.1657 12.5749 17.1884C12.6299 17.2111 12.6888 17.2226 12.7483 17.2224C12.8684 17.222 12.9834 17.1737 13.068 17.0881L13.9731 16.179L15.2584 17.4699C13.4017 19.1456 12.0729 21.3296 11.4351 23.7534C10.7973 26.1773 10.8783 28.7355 11.6683 31.1138C12.4582 33.492 13.9226 35.5867 15.8816 37.1404C17.8406 38.6942 20.2088 39.6393 22.6953 39.8598C25.1818 40.0802 27.6782 39.5663 29.8779 38.3812C32.0776 37.1961 33.8847 35.3915 35.0772 33.189C36.2696 30.9865 36.7956 28.4821 36.5904 25.9835C36.3852 23.4849 35.4577 21.1009 33.922 19.1244L35.2797 17.7608L36.1848 18.6699C36.2271 18.712 36.2772 18.7453 36.3324 18.768C36.3875 18.7906 36.4465 18.8021 36.5061 18.8017C36.5657 18.8021 36.6247 18.7906 36.6798 18.768C36.735 18.7453 36.7851 18.712 36.8274 18.6699C36.9117 18.5847 36.959 18.4695 36.959 18.3494C36.959 18.2293 36.9117 18.1141 36.8274 18.029L35.5693 16.829ZM21.825 11.5335V10.8153H25.7895V11.5335H21.825ZM24.4816 12.4426V14.1972H23.142V12.4426H24.4816ZM35.7096 27.0426C35.7096 29.407 35.0115 31.7183 33.7037 33.6842C32.3958 35.6501 30.537 37.1824 28.3621 38.0872C26.1872 38.992 23.7941 39.2287 21.4852 38.7675C19.1764 38.3062 17.0556 37.1676 15.391 35.4958C13.7265 33.8239 12.5929 31.6938 12.1336 29.3748C11.6744 27.0559 11.9101 24.6522 12.8109 22.4678C13.7118 20.2834 15.2373 18.4164 17.1947 17.1028C19.152 15.7892 21.4532 15.0881 23.8073 15.0881C26.9629 15.0917 29.9882 16.3523 32.2195 18.5935C34.4509 20.8346 35.706 23.8732 35.7096 27.0426Z" fill="#343332"/>
</g>
<rect x="1" y="1.8125" width="46.5625" height="46.5625" rx="23.28" stroke="#5CB1A5" stroke-width="2"/>
<defs>
<clipPath id="clip0_496_248">
<rect width="25.9091" height="30" fill="white" transform="translate(11 9.90625)"/>
</clipPath>
</defs>
</svg>
