<svg width="40" height="40" viewBox="0 0 40 40" fill="none" xmlns="http://www.w3.org/2000/svg">
<path d="M20 0C16.0444 0 12.1776 1.17298 8.8886 3.37061C5.59962 5.56823 3.03617 8.69181 1.52242 12.3463C0.0086658 16.0009 -0.387401 20.0222 0.384303 23.9018C1.15601 27.7814 3.06082 31.3451 5.85787 34.1421C8.65492 36.9392 12.2186 38.844 16.0982 39.6157C19.9778 40.3874 23.9992 39.9913 27.6537 38.4776C31.3082 36.9638 34.4318 34.4004 36.6294 31.1114C38.827 27.8224 40 23.9556 40 20C39.9943 14.6974 37.8853 9.61368 34.1358 5.8642C30.3863 2.11471 25.3026 0.00573513 20 0ZM20 36.6667C16.7037 36.6667 13.4813 35.6892 10.7405 33.8578C7.99968 32.0265 5.86348 29.4235 4.60202 26.3781C3.34056 23.3326 3.0105 19.9815 3.65359 16.7485C4.29667 13.5155 5.88402 10.5458 8.21489 8.21489C10.5458 5.88401 13.5155 4.29667 16.7485 3.65358C19.9815 3.01049 23.3326 3.34055 26.3781 4.60201C29.4235 5.86347 32.0265 7.99968 33.8578 10.7405C35.6892 13.4813 36.6667 16.7036 36.6667 20C36.6618 24.4188 34.9043 28.6552 31.7798 31.7797C28.6552 34.9043 24.4188 36.6618 20 36.6667Z" fill="#191717"/>
<path d="M29.1913 23.5717L21.6663 19.0567V10C21.6663 9.55801 21.4907 9.13409 21.1782 8.82153C20.8656 8.50897 20.4417 8.33337 19.9997 8.33337C19.5576 8.33337 19.1337 8.50897 18.8212 8.82153C18.5086 9.13409 18.333 9.55801 18.333 10V20C18.3442 20.2853 18.4234 20.5638 18.564 20.8122C18.7046 21.0607 18.9026 21.2719 19.1413 21.4284L27.4747 26.4284C27.6624 26.5458 27.8716 26.6247 28.0901 26.6604C28.3086 26.6961 28.532 26.6879 28.7473 26.6363C28.9626 26.5847 29.1655 26.4907 29.344 26.3598C29.5226 26.2289 29.6733 26.0638 29.7874 25.874C29.9014 25.6842 29.9765 25.4736 30.0082 25.2545C30.04 25.0354 30.0278 24.8122 29.9723 24.5978C29.9168 24.3835 29.8192 24.1824 29.6851 24.0062C29.551 23.83 29.3831 23.6823 29.1913 23.5717Z" fill="#191717"/>
</svg>
