<svg width="40" height="40" viewBox="0 0 40 40" fill="none" xmlns="http://www.w3.org/2000/svg">
<path d="M19.3587 1.01062C16.3319 5.85632 14.4214 10.0436 13.5101 14M13.3001 15C12.6582 18.3869 12.7546 21.6283 13.5137 25M13.7572 26C13.8439 26.3318 13.9369 26.665 14.036 27M25.8828 13C25.9784 13.3357 26.0678 13.6689 26.1509 14M26.3844 15C27.1309 18.4621 27.178 21.7034 26.5527 25M18.2468 38.9202C10.9906 38.2563 4.9127 33.512 2.33072 27H12.9946C14.058 30.7103 15.8501 34.5816 18.2468 38.9202ZM20.0318 38.015C17.7698 33.9252 16.1043 30.3501 15.0801 27H25.0566C24.1088 30.3968 22.4351 33.9579 20.0318 38.015ZM25.5341 25H14.5395C14.1458 23.3142 13.9248 21.6727 13.8825 20.0357C13.8398 18.3793 13.9801 16.7143 14.3187 15H25.3606C25.7976 16.9551 26.0021 18.8239 25.9852 20.6625C25.9719 22.1079 25.8216 23.5446 25.5341 25ZM21.8239 38.9136C24.3592 34.6192 26.1519 30.7651 27.1276 27H37.6693C35.0957 33.4908 29.0489 38.2254 21.8239 38.9136ZM38.3355 25H27.5698C27.8319 23.563 27.9718 22.1299 27.9851 20.6809C28.0023 18.8139 27.8093 16.9345 27.4066 15H38.3355C38.7686 16.5921 39 18.2683 39 20C39 21.7317 38.7686 23.4079 38.3355 25ZM12.4897 25H1.6645C1.2314 23.4079 1 21.7317 1 20C1 18.2683 1.2314 16.5921 1.6645 15H12.2829C11.9711 16.7121 11.8396 18.3975 11.8832 20.0873C11.9254 21.7221 12.1313 23.3503 12.4897 25ZM12.7258 13H2.33072C4.89924 6.52192 10.9273 1.79323 18.1335 1.09053C15.4727 5.4358 13.687 9.30563 12.7258 13ZM14.7976 13C15.7383 9.64673 17.4218 6.057 19.9542 1.94767C22.2527 6.08173 23.8657 9.68281 24.8417 13H14.7976ZM37.6693 13H26.9213C25.9142 9.35248 24.1933 5.46828 21.7603 1.08047C29.0134 1.74685 35.0882 6.49012 37.6693 13Z" stroke="#191717" stroke-width="2"/>
</svg>
